<svg width="18" height="21" viewBox="0 0 18 21" fill="none" xmlns="http://www.w3.org/2000/svg">
<path fill-rule="evenodd" clip-rule="evenodd" d="M15.7071 7.06293C15.7071 8.31886 16.039 9.05913 16.7695 9.91219C17.3231 10.5407 17.5 11.3474 17.5 12.2226C17.5 13.0968 17.2128 13.9267 16.6373 14.6005C15.884 15.4083 14.8215 15.9239 13.7372 16.0136C12.1659 16.1475 10.5937 16.2603 9.0005 16.2603C7.40634 16.2603 5.83505 16.1929 4.26375 16.0136C3.17846 15.9239 2.11602 15.4083 1.36367 14.6005C0.78822 13.9267 0.5 13.0968 0.5 12.2226C0.5 11.3474 0.677901 10.5407 1.23049 9.91219C1.98384 9.05913 2.29392 8.31886 2.29392 7.06293V6.6369C2.29392 4.95494 2.71333 3.85512 3.577 2.77846C4.86106 1.2083 6.91935 0.266602 8.95577 0.266602H9.04522C11.1254 0.266602 13.2502 1.25362 14.5125 2.89127C15.3314 3.94576 15.7071 4.99926 15.7071 6.6369V7.06293ZM6.07367 18.3274C6.07367 17.8239 6.53582 17.5932 6.96318 17.4945C7.46309 17.3888 10.5093 17.3888 11.0092 17.4945C11.4366 17.5932 11.8987 17.8239 11.8987 18.3274C11.8738 18.8068 11.5926 19.2319 11.204 19.5018C10.7001 19.8946 10.1088 20.1434 9.49057 20.233C9.14868 20.2773 8.81276 20.2783 8.48279 20.233C7.86362 20.1434 7.27227 19.8946 6.76938 19.5008C6.37978 19.2319 6.09852 18.8068 6.07367 18.3274Z" fill="white"/>
</svg>
