<svg width="25" height="24" viewBox="0 0 25 24" fill="none" xmlns="http://www.w3.org/2000/svg">
<path d="M14.9183 5.49C14.4423 5.40206 14.0051 5.70586 13.9145 6.17054C13.8238 6.63522 14.1286 7.08891 14.5917 7.17984C15.9859 7.45166 17.0625 8.53092 17.3354 9.92995V9.93095C17.4131 10.3337 17.7676 10.6265 18.1759 10.6265C18.2307 10.6265 18.2855 10.6215 18.3412 10.6115C18.8043 10.5186 19.1091 10.0659 19.0185 9.60018C18.6111 7.51062 17.0027 5.89672 14.9183 5.49Z" fill="white"/>
<path d="M14.8561 2.00793C14.633 1.97595 14.4089 2.04191 14.2307 2.18381C14.0474 2.32771 13.9329 2.53557 13.908 2.76841C13.8552 3.23908 14.1948 3.66479 14.6649 3.71776C17.9065 4.07951 20.4262 6.60477 20.7907 9.85654C20.8395 10.2922 21.205 10.621 21.6412 10.621C21.674 10.621 21.7059 10.619 21.7388 10.615C21.9668 10.59 22.17 10.4771 22.3134 10.2972C22.4558 10.1174 22.5206 9.89351 22.4947 9.66467C22.0405 5.60746 18.9005 2.45862 14.8561 2.00793Z" fill="white"/>
<path fill-rule="evenodd" clip-rule="evenodd" d="M11.5317 12.9724C15.5208 16.9604 16.4258 12.3467 18.9656 14.8848C21.4143 17.3328 22.8216 17.8232 19.7192 20.9247C19.3306 21.237 16.8616 24.9943 8.1846 16.3197C-0.493478 7.644 3.26158 5.17244 3.57397 4.78395C6.68387 1.67385 7.16586 3.08938 9.61449 5.53733C12.1544 8.0765 7.54266 8.98441 11.5317 12.9724Z" fill="white"/>
</svg>
